<svg xmlns="http://www.w3.org/2000/svg" viewBox="0 0 64 64" role="img" aria-label="AI discussion">
  <path
    d="M18 13.5h28c8.56 0 15.5 6.94 15.5 15.5v8c0 8.56-6.94 15.5-15.5 15.5H35l-11.5 10v-10H18C9.44 52.5 2.5 45.56 2.5 37V29c0-8.56 6.94-15.5 15.5-15.5Z"
    fill="none"
    stroke="currentColor"
    stroke-linecap="round"
    stroke-linejoin="round"
    stroke-width="4.5"
  />
  <path
    d="M31 20.5l2.45 8.05 8.05 2.45-8.05 2.45L31 41.5l-2.45-8.05L20.5 31l8.05-2.45Z"
    fill="currentColor"
  />
  <path
    d="M45 17l1.25 4 4 1.25-4 1.25L45 27.5l-1.25-4-4-1.25 4-1.25Z"
    fill="currentColor"
  />
  <path
    d="M18.5 20.5l.95 3.05 3.05.95-3.05.95-.95 3.05-.95-3.05-3.05-.95 3.05-.95Z"
    fill="currentColor"
  />
</svg>
